<svg width="1369" height="278" viewBox="0 0 1369 278" fill="none" xmlns="http://www.w3.org/2000/svg">
<path d="M1369 123.914V150.664H1289.38V38.9443H1367.58V65.6942H1320.06V81.4294H1360.66V106.291H1320.06V123.914H1369Z" fill="#01338C"/>
<path d="M1176.74 150.664V38.9443H1219.7C1232.08 38.9443 1242.41 41.462 1250.7 46.4972C1259.09 51.4276 1265.39 58.1413 1269.58 66.6383C1273.88 75.0304 1276.03 84.3666 1276.03 94.647C1276.03 105.976 1273.67 115.837 1268.95 124.229C1264.34 132.621 1257.78 139.125 1249.28 143.741C1240.89 148.356 1231.03 150.664 1219.7 150.664H1176.74ZM1244.88 94.647C1244.88 88.8774 1243.88 83.8421 1241.89 79.5412C1239.89 75.1353 1237.01 71.726 1233.23 69.3133C1229.46 66.9006 1224.95 65.6942 1219.7 65.6942H1207.43V123.914H1219.7C1225.05 123.914 1229.56 122.656 1233.23 120.138C1237.01 117.62 1239.89 114.159 1241.89 109.753C1243.88 105.242 1244.88 100.207 1244.88 94.647Z" fill="#01338C"/>
<path d="M1088.8 95.7484V150.664H1058.12V38.9443H1082.03L1126.88 95.7484V38.9443H1157.56V150.664H1133.17L1088.8 95.7484Z" fill="#01338C"/>
<path d="M978.967 38.9443H1013.27L1048.83 150.664H1017.68L1010.91 128.792H981.17L974.561 150.664H943.248L978.967 38.9443ZM1006.03 108.337L996.118 68.9986L985.733 108.337H1006.03Z" fill="#01338C"/>
<path d="M846.98 150.664V38.9443H898.277C903.732 38.9443 908.767 40.0458 913.383 42.2487C917.999 44.4517 921.985 47.4413 925.342 51.2178C928.699 54.8894 931.269 59.033 933.052 63.6486C934.94 68.2643 935.884 72.9324 935.884 77.653C935.884 81.9539 935.255 86.0975 933.996 90.0838C932.737 94.07 930.902 97.7416 928.489 101.098C926.076 104.35 923.191 107.183 919.834 109.595L943.437 150.664H909.764L890.095 116.362H877.664V150.664H846.98ZM877.664 89.6117H897.018C898.277 89.6117 899.484 89.1397 900.638 88.1955C901.791 87.2514 902.736 85.8877 903.47 84.1044C904.309 82.3211 904.729 80.1706 904.729 77.653C904.729 75.0304 904.257 72.8799 903.313 71.2015C902.473 69.4182 901.372 68.0545 900.008 67.1104C898.749 66.1662 897.491 65.6942 896.232 65.6942H877.664V89.6117Z" fill="#01338C"/>
<path d="M778.962 151.451C771.724 151.451 764.801 150.192 758.192 147.675C751.688 145.052 745.918 141.276 740.883 136.345C735.848 131.31 731.862 125.278 728.924 118.25C726.092 111.116 724.676 102.987 724.676 93.8601C724.676 85.9925 726.144 78.7019 729.082 71.9882C732.019 65.2745 736.058 59.4 741.198 54.3647C746.443 49.2246 752.527 45.2383 759.451 42.406C766.374 39.5736 773.875 38.1575 781.952 38.1575C792.022 38.1575 801.149 40.3604 809.331 44.7663C817.514 49.0672 823.598 54.9941 827.584 62.547L804.768 80.0131C802.565 75.6073 799.261 72.0931 794.855 69.4705C790.449 66.7431 785.781 65.3794 780.85 65.3794C777.179 65.3794 773.822 66.1137 770.78 67.5823C767.738 69.0509 765.063 71.0965 762.755 73.719C760.552 76.3416 758.821 79.4886 757.562 83.1602C756.408 86.7268 755.831 90.6606 755.831 94.9616C755.831 99.3674 756.461 103.354 757.72 106.92C758.979 110.487 760.709 113.582 762.912 116.204C765.22 118.722 767.948 120.715 771.095 122.183C774.242 123.547 777.756 124.229 781.637 124.229C786.568 124.229 791.288 123.023 795.799 120.61C800.31 118.092 804.401 114.578 808.072 110.067V139.964C799.68 147.622 789.977 151.451 778.962 151.451ZM806.499 113.214H785.886V91.1851H831.833V150.664H806.499V113.214Z" fill="#01338C"/>
<path d="M656.121 38.9443H690.424L725.986 150.664H694.83L688.064 128.792H658.324L651.715 150.664H620.402L656.121 38.9443ZM683.186 108.337L673.273 68.9986L662.887 108.337H683.186Z" fill="#01338C"/>
<path d="M603.624 75.4497C603.624 75.4497 602.733 74.9252 600.949 73.8761C599.166 72.8271 596.806 71.6732 593.869 70.4144C590.931 69.0507 587.732 67.8443 584.27 66.7953C580.808 65.7463 577.399 65.2218 574.042 65.2218C571.42 65.2218 569.269 65.6414 567.591 66.4806C565.912 67.3198 565.073 68.736 565.073 70.7291C565.073 72.6173 565.912 74.1384 567.591 75.2923C569.269 76.4462 571.63 77.4952 574.672 78.4394C577.819 79.3835 581.543 80.5374 585.844 81.9011C592.767 83.9991 598.747 86.4119 603.782 89.1393C608.817 91.8667 612.698 95.3809 615.426 99.6819C618.153 103.878 619.517 109.49 619.517 116.519C619.517 123.232 618.311 128.897 615.898 133.513C613.485 138.023 610.233 141.642 606.142 144.37C602.051 147.097 597.488 149.09 592.452 150.349C587.417 151.503 582.277 152.08 577.032 152.08C571.682 152.08 566.07 151.556 560.195 150.507C554.426 149.353 548.813 147.832 543.359 145.943C537.904 143.95 532.921 141.642 528.41 139.02L541.628 112.113C541.628 112.113 542.677 112.742 544.775 114.001C546.873 115.26 549.653 116.676 553.114 118.249C556.576 119.823 560.405 121.239 564.601 122.498C568.902 123.757 573.203 124.386 577.504 124.386C580.861 124.386 583.169 123.967 584.427 123.127C585.791 122.183 586.473 120.977 586.473 119.508C586.473 117.305 585.319 115.627 583.011 114.473C580.703 113.214 577.661 112.06 573.885 111.011C570.213 109.857 566.122 108.546 561.611 107.077C555.108 104.875 549.758 102.409 545.562 99.6819C541.365 96.8495 538.271 93.5452 536.278 89.7687C534.285 85.8873 533.288 81.2192 533.288 75.7644C533.288 67.4772 535.229 60.5537 539.11 54.9939C542.991 49.4341 548.079 45.2381 554.373 42.4057C560.772 39.4685 567.643 37.9999 574.986 37.9999C580.441 37.9999 585.686 38.6817 590.722 40.0455C595.862 41.3043 600.635 42.8778 605.041 44.766C609.551 46.6542 613.485 48.4376 616.842 50.116L603.624 75.4497Z" fill="#01338C"/>
<path d="M458.045 38.9443H492.348L527.909 150.664H496.754L489.988 128.792H460.248L453.639 150.664H422.326L458.045 38.9443ZM485.11 108.337L475.196 68.9986L464.811 108.337H485.11Z" fill="#01338C"/>
<path d="M319 93.8595C319 87.0409 320.259 80.3797 322.776 73.8758C325.399 67.267 329.175 61.2876 334.106 55.9376C339.036 50.5877 345.016 46.3392 352.044 43.1921C359.177 39.9402 367.202 38.3142 376.119 38.3142C386.819 38.3142 396.155 40.5696 404.127 45.0804C412.1 49.4862 418.027 55.3607 421.908 62.7038L398.463 79.3831C397.099 75.7115 395.106 72.8792 392.483 70.8861C389.966 68.893 387.186 67.5292 384.144 66.7949C381.207 65.9557 378.322 65.5361 375.489 65.5361C371.084 65.5361 367.255 66.4278 364.003 68.2111C360.856 69.8895 358.233 72.1449 356.135 74.9772C354.142 77.8096 352.621 80.9566 351.572 84.4184C350.628 87.8801 350.156 91.3419 350.156 94.8036C350.156 98.685 350.733 102.409 351.887 105.976C353.04 109.542 354.719 112.742 356.922 115.574C359.125 118.302 361.8 120.452 364.947 122.025C368.199 123.599 371.818 124.386 375.804 124.386C378.636 124.386 381.521 123.966 384.458 123.127C387.396 122.183 390.071 120.714 392.483 118.721C394.896 116.728 396.732 114.053 397.991 110.696L423.01 125.645C420.807 131.099 417.135 135.768 411.995 139.649C406.855 143.53 401.033 146.52 394.529 148.618C388.025 150.611 381.574 151.608 375.175 151.608C366.887 151.608 359.282 149.982 352.359 146.73C345.54 143.373 339.613 138.967 334.578 133.512C329.647 127.952 325.819 121.763 323.091 114.945C320.364 108.021 319 100.993 319 93.8595Z" fill="#01338C"/>
<path d="M513.552 224.312V213.508H535.16V224.312H513.552ZM565.405 240V188.2H580.057V240H565.405ZM590.481 240V188.2H602.543L631.107 222.684H625.409V188.2H639.765V240H627.703L599.139 205.516H604.837V240H590.481ZM650.1 240V188.2H662.162L683.622 223.424H677.258L698.126 188.2H710.188L710.336 240H696.868L696.72 208.698H699.014L683.4 234.894H676.888L660.83 208.698H663.642V240H650.1ZM746.825 241.036C742.681 241.036 738.858 240.37 735.355 239.038C731.853 237.706 728.794 235.831 726.179 233.414C723.614 230.947 721.616 228.086 720.185 224.83C718.755 221.574 718.039 217.997 718.039 214.1C718.039 210.203 718.755 206.626 720.185 203.37C721.616 200.114 723.614 197.277 726.179 194.86C728.794 192.393 731.853 190.494 735.355 189.162C738.858 187.83 742.681 187.164 746.825 187.164C751.019 187.164 754.842 187.83 758.295 189.162C761.798 190.494 764.832 192.393 767.397 194.86C769.963 197.277 771.961 200.114 773.391 203.37C774.871 206.626 775.611 210.203 775.611 214.1C775.611 217.997 774.871 221.599 773.391 224.904C771.961 228.16 769.963 230.997 767.397 233.414C764.832 235.831 761.798 237.706 758.295 239.038C754.842 240.37 751.019 241.036 746.825 241.036ZM746.825 228.9C748.799 228.9 750.624 228.555 752.301 227.864C754.028 227.173 755.508 226.187 756.741 224.904C758.024 223.572 759.011 221.993 759.701 220.168C760.441 218.343 760.811 216.32 760.811 214.1C760.811 211.831 760.441 209.808 759.701 208.032C759.011 206.207 758.024 204.653 756.741 203.37C755.508 202.038 754.028 201.027 752.301 200.336C750.624 199.645 748.799 199.3 746.825 199.3C744.852 199.3 743.002 199.645 741.275 200.336C739.598 201.027 738.118 202.038 736.835 203.37C735.602 204.653 734.615 206.207 733.875 208.032C733.185 209.808 732.839 211.831 732.839 214.1C732.839 216.32 733.185 218.343 733.875 220.168C734.615 221.993 735.602 223.572 736.835 224.904C738.118 226.187 739.598 227.173 741.275 227.864C743.002 228.555 744.852 228.9 746.825 228.9ZM783.285 240V188.2H809.777C816.585 188.2 821.667 189.458 825.021 191.974C828.376 194.441 830.053 197.697 830.053 201.742C830.053 204.406 829.338 206.749 827.907 208.772C826.526 210.745 824.553 212.324 821.987 213.508C819.471 214.643 816.462 215.21 812.959 215.21L814.439 211.658C818.09 211.658 821.272 212.225 823.985 213.36C826.699 214.445 828.795 216.049 830.275 218.17C831.805 220.242 832.569 222.783 832.569 225.792C832.569 230.281 830.744 233.784 827.093 236.3C823.492 238.767 818.213 240 811.257 240H783.285ZM797.789 229.418H810.073C812.589 229.418 814.489 228.999 815.771 228.16C817.103 227.272 817.769 225.94 817.769 224.164C817.769 222.388 817.103 221.081 815.771 220.242C814.489 219.354 812.589 218.91 810.073 218.91H796.753V208.772H807.853C810.32 208.772 812.17 208.353 813.403 207.514C814.637 206.675 815.253 205.417 815.253 203.74C815.253 202.063 814.637 200.829 813.403 200.04C812.17 199.201 810.32 198.782 807.853 198.782H797.789V229.418ZM840.159 240V188.2H854.811V240H840.159ZM865.235 240V188.2H879.887V228.382H904.603V240H865.235ZM910.401 240V188.2H925.053V240H910.401ZM929.261 240L952.127 188.2H966.557L989.497 240H974.253L956.345 195.378H962.117L944.209 240H929.261ZM941.767 229.936L945.541 219.132H970.849L974.623 229.936H941.767ZM993.651 240V188.2H1016.81C1024.36 188.2 1030.16 189.927 1034.2 193.38C1038.3 196.784 1040.34 201.446 1040.34 207.366C1040.34 211.263 1039.41 214.643 1037.53 217.504C1035.66 220.316 1032.99 222.487 1029.54 224.016C1026.14 225.496 1022.07 226.236 1017.33 226.236H1001.79L1008.3 220.094V240H993.651ZM1025.69 240L1012.82 221.13H1028.43L1041.38 240H1025.69ZM1008.3 221.648L1001.79 214.914H1016.44C1019.5 214.914 1021.77 214.248 1023.25 212.916C1024.78 211.584 1025.54 209.734 1025.54 207.366C1025.54 204.949 1024.78 203.074 1023.25 201.742C1021.77 200.41 1019.5 199.744 1016.44 199.744H1001.79L1008.3 193.01V221.648ZM1048.43 240V188.2H1063.08V240H1048.43ZM1067.29 240L1090.15 188.2H1104.58L1127.52 240H1112.28L1094.37 195.378H1100.14L1082.24 240H1067.29ZM1079.79 229.936L1083.57 219.132H1108.88L1112.65 229.936H1079.79ZM1151.59 224.312V213.508H1173.19V224.312H1151.59Z" fill="#01338C"/>
<path d="M131.787 63.8935H67.8935V127.787H4V0H131.787V63.8935Z" fill="#FFB200"/>
<g filter="url(#filter0_d_3731_169)">
<path d="M131.787 206.101H67.8935V142.207H4V269.994H131.787V206.101Z" fill="#FFB200"/>
</g>
<path d="M149.191 63.8935H213.085V127.787H276.979V0H149.191V63.8935Z" fill="#FFB200"/>
<path d="M149.191 206.097H213.085V142.204H276.979V269.991H149.191V206.097Z" fill="#FFB200"/>
<path d="M78.0508 72.7404H202.561V197.251H78.0508V72.7404Z" fill="#01338C"/>
<defs>
<filter id="filter0_d_3731_169" x="0" y="142.207" width="135.787" height="135.787" filterUnits="userSpaceOnUse" color-interpolation-filters="sRGB">
<feFlood flood-opacity="0" result="BackgroundImageFix"/>
<feColorMatrix in="SourceAlpha" type="matrix" values="0 0 0 0 0 0 0 0 0 0 0 0 0 0 0 0 0 0 127 0" result="hardAlpha"/>
<feOffset dy="4"/>
<feGaussianBlur stdDeviation="2"/>
<feComposite in2="hardAlpha" operator="out"/>
<feColorMatrix type="matrix" values="0 0 0 0 0 0 0 0 0 0 0 0 0 0 0 0 0 0 0.25 0"/>
<feBlend mode="normal" in2="BackgroundImageFix" result="effect1_dropShadow_3731_169"/>
<feBlend mode="normal" in="SourceGraphic" in2="effect1_dropShadow_3731_169" result="shape"/>
</filter>
</defs>
</svg>
