<svg width="754" height="158" viewBox="0 0 754 158" fill="none" xmlns="http://www.w3.org/2000/svg">
<path d="M48.5694 128.689L37.8749 122.302L18.5027 134.144V28.6341C28.5945 19.1405 37.9985 9.08534 48.5694 0V128.689Z" fill="white"/>
<path d="M0 157.272L36.0952 133.703L60.8876 149.569L106.342 120.267L130.324 135.153L130.597 128.683H147.127V145.675L164.21 157.272H151.81L107.976 128.957L106.666 128.662L61.9921 157.272H49.5922L53.9955 153.76L36.0952 142.343L12.9521 157.272H0Z" fill="white"/>
<path d="M60.1333 138.769L53.1948 132.536V0L60.1333 5.14631V138.769Z" fill="#FFB200"/>
<path d="M64.759 6.93848L73.9303 11.9021L74.0103 129.674C73.6609 131.688 66.5787 134.848 64.759 136.456V6.93848Z" fill="#FFB200"/>
<path d="M78.636 13.877C80.9116 15.4432 85.5712 17.024 87.4784 18.7062C87.7673 18.96 87.9479 19.1268 87.8685 19.5474L87.8179 120.418C87.4784 122.369 80.4926 125.864 78.636 127.205V13.877Z" fill="#FFB200"/>
<path d="M106.39 53.1948V110.681L90.2002 120.267V68.6967L104.674 54.0841L106.39 53.1948Z" fill="white"/>
<path d="M120.267 58.0111V117.954L111.015 111.799V53.1948L120.267 58.0111Z" fill="#FFB200"/>
<path d="M134.144 120.267H124.892V57.8206C128.129 59.2224 131.336 61.0838 134.144 63.2593V120.259V120.267Z" fill="#FFB200"/>
<path d="M145.708 72.0586V120.267H136.457V67.0718C139.438 68.7686 142.479 70.9619 145.708 72.0586Z" fill="#FFB200"/>
<path d="M113.328 141.082H108.702V145.708H113.328V141.082Z" fill="white"/>
<path d="M113.328 150.333H108.702V154.959H113.328V150.333Z" fill="white"/>
<path d="M104.077 141.082H99.4512V145.708H104.077V141.082Z" fill="white"/>
<path d="M104.077 150.333H99.4512V154.959H104.077V150.333Z" fill="white"/>
<path d="M39.3182 148.021H37.0054V150.333H39.3182V148.021Z" fill="white"/>
<path d="M39.3182 152.646H37.0054V154.959H39.3182V152.646Z" fill="white"/>
<path d="M34.6922 148.021H32.3794V150.333H34.6922V148.021Z" fill="white"/>
<path d="M34.6922 152.646H32.3794V154.959H34.6922V152.646Z" fill="white"/>
<path d="M754 94.2549V109.664H709.756V45.3088H753.213V60.7178H726.806V69.7819H749.366V84.1031H726.806V94.2549H754Z" fill="white"/>
<path d="M645.401 109.664V45.3088H669.763C676.784 45.3088 682.644 46.7591 687.344 49.6596C692.103 52.4997 695.673 56.367 698.053 61.2616C700.492 66.0958 701.712 71.4738 701.712 77.3957C701.712 83.9218 700.373 89.602 697.696 94.4362C695.078 99.2704 691.36 103.017 686.541 105.676C681.781 108.334 676.189 109.664 669.763 109.664H645.401ZM684.042 77.3957C684.042 74.0722 683.477 71.1717 682.346 68.6942C681.216 66.1562 679.58 64.1924 677.438 62.8025C675.296 61.4127 672.738 60.7178 669.763 60.7178H662.803V94.2549H669.763C672.798 94.2549 675.356 93.5298 677.438 92.0795C679.58 90.6293 681.216 88.6352 682.346 86.0972C683.477 83.4989 684.042 80.5983 684.042 77.3957Z" fill="white"/>
<path d="M597.8 78.0302V109.664H581.046V45.3088H594.105L618.592 78.0302V45.3088H635.345V109.664H622.028L597.8 78.0302Z" fill="white"/>
<path d="M536.421 45.3088H555.369L575.013 109.664H557.803L554.065 97.0648H537.638L533.988 109.664H516.691L536.421 45.3088ZM551.371 85.2815L545.895 62.6212L540.159 85.2815H551.371Z" fill="white"/>
<path d="M462.391 109.664V45.3088H491.268C494.339 45.3088 497.174 45.9433 499.772 47.2123C502.37 48.4813 504.615 50.2034 506.504 52.3788C508.394 54.4938 509.841 56.8807 510.845 59.5395C511.908 62.1983 512.439 64.8873 512.439 67.6065C512.439 70.084 512.085 72.4709 511.376 74.7671C510.667 77.0634 509.634 79.1783 508.276 81.112C506.918 82.9852 505.294 84.6168 503.404 86.0066L516.691 109.664H497.735L486.662 89.9041H479.664V109.664H462.391ZM479.664 74.4952H490.56C491.268 74.4952 491.948 74.2233 492.597 73.6794C493.247 73.1356 493.778 72.35 494.192 71.3228C494.664 70.2955 494.9 69.0567 494.9 67.6065C494.9 66.0958 494.635 64.8571 494.103 63.8902C493.631 62.863 493.011 62.0774 492.243 61.5336C491.534 60.9897 490.826 60.7178 490.117 60.7178H479.664V74.4952Z" fill="white"/>
<path d="M424.579 109.664C420.504 109.664 416.606 108.949 412.885 107.519C409.223 106.029 405.974 103.884 403.139 101.083C400.304 98.223 398.06 94.7966 396.406 90.8043C394.812 86.7523 394.014 82.1342 394.014 76.9501C394.014 72.481 394.841 68.3396 396.495 64.526C398.149 60.7123 400.422 57.3754 403.317 54.5152C406.27 51.5954 409.695 49.331 413.594 47.7222C417.492 46.1133 421.715 45.3088 426.263 45.3088C431.933 45.3088 437.071 46.5602 441.678 49.0629C446.285 51.506 449.711 54.8727 451.955 59.163L439.109 69.0844C437.868 66.5817 436.008 64.5855 433.527 63.0958C431.047 61.5466 428.418 60.7719 425.642 60.7719C423.575 60.7719 421.685 61.189 419.972 62.0233C418.26 62.8575 416.753 64.0195 415.454 65.5092C414.214 66.9989 413.239 68.7865 412.53 70.8721C411.881 72.8981 411.556 75.1326 411.556 77.5757C411.556 80.0784 411.91 82.3428 412.619 84.3688C413.328 86.3947 414.302 88.1526 415.543 89.6423C416.842 91.0724 418.378 92.2046 420.15 93.0388C421.921 93.8134 423.9 94.2008 426.085 94.2008C428.861 94.2008 431.519 93.5155 434.059 92.145C436.599 90.7149 438.902 88.7187 440.969 86.1564V103.139C436.244 107.489 430.781 109.664 424.579 109.664ZM440.083 87.944H428.477V75.4306H454.347V109.217H440.083V87.944Z" fill="white"/>
<path d="M357.434 45.3088H376.382L396.025 109.664H378.815L375.078 97.0648H358.651L355 109.664H337.703L357.434 45.3088ZM372.384 85.2815L366.908 62.6212L361.171 85.2815H372.384Z" fill="white"/>
<path d="M326.922 66.435C326.922 66.435 326.43 66.1391 325.446 65.5474C324.462 64.9556 323.159 64.3047 321.538 63.5945C319.917 62.8252 318.152 62.1447 316.241 61.5529C314.331 60.9612 312.45 60.6653 310.597 60.6653C309.15 60.6653 307.963 60.902 307.037 61.3754C306.111 61.8488 305.648 62.6477 305.648 63.7721C305.648 64.8373 306.111 65.6953 307.037 66.3463C307.963 66.9972 309.266 67.589 310.944 68.1216C312.681 68.6542 314.736 69.3051 317.11 70.0744C320.93 71.258 324.23 72.619 327.009 74.1576C329.788 75.6962 331.93 77.6787 333.435 80.1049C334.94 82.472 335.692 85.638 335.692 89.6028C335.692 93.3902 335.027 96.5857 333.695 99.1895C332.364 101.734 330.569 103.776 328.311 105.314C326.054 106.853 323.536 107.977 320.757 108.687C317.978 109.338 315.141 109.664 312.247 109.664C309.295 109.664 306.198 109.368 302.956 108.776C299.772 108.125 296.675 107.267 293.664 106.202C290.654 105.078 287.904 103.776 285.415 102.296L292.709 87.1174C292.709 87.1174 293.288 87.4725 294.446 88.1826C295.604 88.8927 297.138 89.6916 299.048 90.5793C300.958 91.4669 303.071 92.2658 305.387 92.9759C307.761 93.6861 310.134 94.0411 312.507 94.0411C314.36 94.0411 315.634 93.8044 316.328 93.331C317.081 92.7984 317.457 92.1179 317.457 91.2894C317.457 90.0467 316.82 89.0998 315.547 88.4489C314.273 87.7388 312.594 87.0878 310.51 86.496C308.484 85.8451 306.226 85.1054 303.737 84.2769C300.148 83.0342 297.196 81.6435 294.88 80.1049C292.564 78.5071 290.857 76.6431 289.757 74.5127C288.657 72.3232 288.107 69.6898 288.107 66.6126C288.107 61.9376 289.178 58.0319 291.32 54.8955C293.462 51.7591 296.269 49.3921 299.743 47.7943C303.274 46.1373 307.066 45.3088 311.118 45.3088C314.128 45.3088 317.023 45.6935 319.802 46.4628C322.638 47.1729 325.272 48.0606 327.704 49.1258C330.193 50.1909 332.364 51.197 334.216 52.1438L326.922 66.435Z" fill="white"/>
<path d="M246.824 45.3088H265.772L285.415 109.664H268.205L264.468 97.0648H248.04L244.39 109.664H227.093L246.824 45.3088ZM261.773 85.2815L256.298 62.6212L250.561 85.2815H261.773Z" fill="white"/>
<path d="M168.772 76.8607C168.772 72.9875 169.478 69.2036 170.889 65.5092C172.36 61.7551 174.477 58.3586 177.242 55.3196C180.007 52.2806 183.36 49.8673 187.301 48.0797C191.3 46.2325 195.8 45.3088 200.8 45.3088C206.8 45.3088 212.035 46.59 216.506 49.1523C220.976 51.655 224.299 54.9919 226.476 59.163L213.329 68.6375C212.564 66.552 211.447 64.9431 209.976 63.8109C208.565 62.6787 207.006 61.9041 205.3 61.487C203.653 61.0103 202.035 60.7719 200.447 60.7719C197.977 60.7719 195.83 61.2784 194.006 62.2914C192.242 63.2448 190.771 64.526 189.595 66.1348C188.477 67.7437 187.624 69.5314 187.036 71.4978C186.506 73.4642 186.242 75.4306 186.242 77.397C186.242 79.6017 186.565 81.7171 187.212 83.7431C187.859 85.7691 188.801 87.5865 190.036 89.1954C191.271 90.7447 192.771 91.9662 194.536 92.86C196.359 93.7539 198.388 94.2008 200.624 94.2008C202.212 94.2008 203.829 93.9624 205.476 93.4857C207.123 92.9494 208.623 92.1152 209.976 90.983C211.329 89.8508 212.359 88.3314 213.064 86.4245L227.093 94.9158C225.858 98.0144 223.799 100.666 220.917 102.871C218.035 105.076 214.77 106.774 211.123 107.966C207.476 109.098 203.859 109.664 200.271 109.664C195.624 109.664 191.359 108.74 187.477 106.893C183.654 104.986 180.33 102.483 177.507 99.3849C174.742 96.2268 172.595 92.7111 171.066 88.8379C169.536 84.905 168.772 80.9127 168.772 76.8607Z" fill="white"/>
<path d="M645.307 125.191C645.087 124.971 644.68 124.673 644.084 124.297C643.519 123.921 642.813 123.56 641.966 123.215C641.151 122.87 640.257 122.572 639.285 122.321C638.312 122.039 637.324 121.897 636.32 121.897C634.564 121.897 633.231 122.227 632.321 122.885C631.443 123.544 631.004 124.469 631.004 125.661C631.004 126.571 631.286 127.292 631.851 127.826C632.415 128.359 633.262 128.814 634.391 129.19C635.521 129.567 636.932 129.974 638.626 130.413C640.822 130.947 642.719 131.605 644.319 132.39C645.95 133.142 647.189 134.146 648.036 135.401C648.914 136.624 649.353 138.255 649.353 140.294C649.353 142.082 649.024 143.619 648.365 144.905C647.707 146.159 646.797 147.179 645.636 147.963C644.476 148.747 643.158 149.327 641.684 149.704C640.21 150.049 638.642 150.221 636.979 150.221C635.317 150.221 633.654 150.049 631.992 149.704C630.329 149.359 628.73 148.873 627.193 148.245C625.656 147.587 624.244 146.802 622.958 145.893L625.828 140.294C626.111 140.576 626.612 140.953 627.334 141.423C628.055 141.862 628.934 142.317 629.969 142.788C631.004 143.227 632.133 143.603 633.356 143.917C634.58 144.23 635.819 144.387 637.073 144.387C638.83 144.387 640.163 144.089 641.072 143.493C641.982 142.897 642.437 142.05 642.437 140.953C642.437 139.949 642.076 139.165 641.355 138.6C640.633 138.036 639.63 137.549 638.344 137.142C637.058 136.702 635.536 136.232 633.78 135.73C631.678 135.134 629.922 134.475 628.51 133.754C627.099 133.001 626.048 132.06 625.358 130.931C624.668 129.802 624.323 128.39 624.323 126.696C624.323 124.407 624.856 122.493 625.922 120.956C627.02 119.388 628.494 118.212 630.345 117.428C632.196 116.612 634.25 116.204 636.509 116.204C638.077 116.204 639.551 116.377 640.931 116.722C642.343 117.067 643.66 117.522 644.884 118.086C646.107 118.651 647.205 119.263 648.177 119.921L645.307 125.191Z" fill="white"/>
<path d="M620.343 144.151V149.844H597.147V116.439H619.919V122.132H603.64V130.178H617.708V135.447H603.64V144.151H620.343Z" fill="white"/>
<path d="M562.869 132.906C562.869 130.868 563.23 128.876 563.951 126.931C564.704 124.955 565.786 123.167 567.197 121.567C568.609 119.936 570.334 118.65 572.373 117.709C574.412 116.737 576.733 116.251 579.336 116.251C582.41 116.251 585.061 116.925 587.288 118.274C589.546 119.623 591.224 121.379 592.322 123.543L587.335 126.978C586.77 125.723 586.033 124.735 585.124 124.014C584.214 123.261 583.242 122.744 582.206 122.461C581.171 122.148 580.152 121.991 579.148 121.991C577.517 121.991 576.09 122.32 574.867 122.979C573.675 123.638 572.671 124.5 571.855 125.567C571.04 126.633 570.428 127.825 570.02 129.142C569.644 130.46 569.456 131.777 569.456 133.095C569.456 134.569 569.691 135.996 570.162 137.376C570.632 138.725 571.291 139.933 572.138 140.999C573.016 142.034 574.051 142.865 575.243 143.493C576.466 144.089 577.799 144.387 579.242 144.387C580.277 144.387 581.328 144.214 582.395 143.869C583.461 143.524 584.449 142.975 585.359 142.222C586.268 141.469 586.974 140.497 587.476 139.305L592.793 142.363C592.134 144.026 591.052 145.437 589.546 146.598C588.072 147.759 586.41 148.637 584.559 149.233C582.708 149.829 580.873 150.127 579.054 150.127C576.67 150.127 574.49 149.641 572.514 148.668C570.538 147.664 568.829 146.347 567.386 144.716C565.974 143.054 564.861 141.203 564.045 139.164C563.261 137.094 562.869 135.008 562.869 132.906Z" fill="white"/>
<path d="M551.43 149.844V116.439H557.923V149.844H551.43Z" fill="white"/>
<path d="M528.899 116.439H535.486L547.766 149.844H541.085L537.979 141.517H526.311L523.253 149.844H516.572L528.899 116.439ZM536.803 136.953L532.192 123.167L527.393 136.953H536.803Z" fill="white"/>
<path d="M488.528 149.844V116.439H503.302C504.839 116.439 506.25 116.753 507.536 117.38C508.854 118.007 509.983 118.854 510.924 119.921C511.896 120.987 512.633 122.179 513.135 123.496C513.668 124.814 513.935 126.163 513.935 127.543C513.935 128.954 513.684 130.319 513.182 131.636C512.712 132.922 512.022 134.051 511.112 135.024C510.202 135.996 509.136 136.749 507.913 137.282L515.535 149.844H508.383L501.514 138.647H495.021V149.844H488.528ZM495.021 132.953H503.161C503.976 132.953 504.698 132.718 505.325 132.248C505.952 131.746 506.454 131.087 506.83 130.272C507.207 129.456 507.395 128.546 507.395 127.543C507.395 126.476 507.176 125.551 506.736 124.767C506.297 123.951 505.733 123.308 505.043 122.838C504.384 122.367 503.662 122.132 502.878 122.132H495.021V132.953Z" fill="white"/>
<path d="M451.675 116.439L459.909 132.154L468.284 116.439H475.294L463.155 138.176V149.844H456.709V138.082L444.617 116.439H451.675Z" fill="white"/>
<path d="M429.401 125.191C429.181 124.971 428.774 124.673 428.178 124.297C427.613 123.921 426.907 123.56 426.06 123.215C425.245 122.87 424.351 122.572 423.379 122.321C422.406 122.039 421.418 121.897 420.414 121.897C418.658 121.897 417.325 122.227 416.415 122.885C415.537 123.544 415.098 124.469 415.098 125.661C415.098 126.571 415.38 127.292 415.945 127.826C416.509 128.359 417.356 128.814 418.485 129.19C419.615 129.567 421.026 129.974 422.72 130.413C424.916 130.947 426.813 131.605 428.413 132.39C430.044 133.142 431.283 134.146 432.13 135.401C433.008 136.624 433.447 138.255 433.447 140.294C433.447 142.082 433.118 143.619 432.459 144.905C431.801 146.159 430.891 147.179 429.73 147.963C428.57 148.747 427.252 149.327 425.778 149.704C424.304 150.049 422.736 150.221 421.073 150.221C419.411 150.221 417.748 150.049 416.086 149.704C414.423 149.359 412.824 148.873 411.287 148.245C409.75 147.587 408.338 146.802 407.052 145.893L409.922 140.294C410.205 140.576 410.706 140.953 411.428 141.423C412.149 141.862 413.028 142.317 414.063 142.788C415.098 143.227 416.227 143.603 417.45 143.917C418.674 144.23 419.913 144.387 421.167 144.387C422.924 144.387 424.257 144.089 425.166 143.493C426.076 142.897 426.531 142.05 426.531 140.953C426.531 139.949 426.17 139.165 425.449 138.6C424.727 138.036 423.724 137.549 422.438 137.142C421.152 136.702 419.63 136.232 417.874 135.73C415.772 135.134 414.016 134.475 412.604 133.754C411.193 133.001 410.142 132.06 409.452 130.931C408.762 129.802 408.417 128.39 408.417 126.696C408.417 124.407 408.95 122.493 410.016 120.956C411.114 119.388 412.588 118.212 414.439 117.428C416.29 116.612 418.344 116.204 420.603 116.204C422.171 116.204 423.645 116.377 425.025 116.722C426.437 117.067 427.754 117.522 428.978 118.086C430.201 118.651 431.299 119.263 432.271 119.921L429.401 125.191Z" fill="white"/>
<path d="M404.437 144.151V149.844H381.241V116.439H404.014V122.132H387.734V130.178H401.802V135.447H387.734V144.151H404.437Z" fill="white"/>
<path d="M351.849 128.39V149.844H345.356V116.439H350.532L367.799 138.458V116.486H374.292V149.844H368.881L351.849 128.39Z" fill="white"/>
<path d="M340.295 144.151V149.844H317.099V116.439H339.871V122.132H323.592V130.178H337.66V135.447H323.592V144.151H340.295Z" fill="white"/>
<path d="M303.636 149.844V116.439H310.129V149.844H303.636Z" fill="white"/>
<path d="M298.57 141.234C298.57 143.116 298.084 144.7 297.111 145.986C296.139 147.241 294.821 148.198 293.159 148.856C291.528 149.515 289.74 149.844 287.795 149.844H271.657V116.439H289.536C291.105 116.439 292.453 116.862 293.582 117.709C294.743 118.525 295.621 119.591 296.217 120.909C296.845 122.195 297.158 123.544 297.158 124.955C297.158 126.555 296.751 128.076 295.935 129.519C295.119 130.962 293.928 132.028 292.359 132.718C294.273 133.283 295.778 134.302 296.876 135.776C298.005 137.251 298.57 139.07 298.57 141.234ZM292.03 140.011C292.03 139.164 291.857 138.411 291.512 137.753C291.167 137.063 290.697 136.529 290.101 136.153C289.536 135.745 288.877 135.541 288.125 135.541H278.15V144.34H287.795C288.58 144.34 289.285 144.151 289.913 143.775C290.571 143.367 291.089 142.834 291.465 142.175C291.842 141.517 292.03 140.795 292.03 140.011ZM278.15 121.991V130.413H286.807C287.529 130.413 288.187 130.24 288.783 129.895C289.379 129.55 289.85 129.064 290.195 128.437C290.571 127.809 290.759 127.057 290.759 126.178C290.759 125.331 290.587 124.594 290.242 123.967C289.928 123.34 289.489 122.853 288.925 122.508C288.391 122.163 287.78 121.991 287.09 121.991H278.15Z" fill="white"/>
</svg>
